<?xml version="1.0" encoding="utf-8"?>
<!-- Generator: Adobe Illustrator 26.3.1, SVG Export Plug-In . SVG Version: 6.00 Build 0)  -->
<svg version="1.1" id="Layer_1" xmlns="http://www.w3.org/2000/svg" xmlns:xlink="http://www.w3.org/1999/xlink" x="0px" y="0px"
	 viewBox="0 0 1200 362" style="enable-background:new 0 0 1200 362;" xml:space="preserve">
<style type="text/css">
	.st0{fill:#FF232F;}
</style>
<g>
	<polygon class="st0" points="857.6,61.1 925.6,61.1 807.2,355.3 728.7,355.3 610.3,61.1 678.3,61.1 767.7,284.4 	"/>
	
		<rect x="-146.6" y="146.9" transform="matrix(-1.836970e-16 1 -1 -1.836970e-16 208.7968 146.8544)" class="st0" width="355.1" height="61.9"/>
	<polygon class="st0" points="231.4,355.4 95.6,177.8 231.4,0.3 309.1,0.3 175.2,177.8 309.1,355.4 	"/>
	<path class="st0" d="M457.4,53.3c-67.8,0-118.9,37.5-122.6,93.2l-0.4,6.5h60.8l1-4.8c5.6-26.2,27-40.6,60.1-40.6
		c36,0,56.6,18.1,56.6,49.7v18.2l-76.2,4.3c-68.6,4-110.1,37.6-110.1,89.8c0,55,41.3,92,102,92c36.2,0,62.6-9.9,84.1-31.9v27h61.7
		v-204C574.3,92.3,527.7,53.3,457.4,53.3z M512.9,223.4v18.3c-4,39.9-31.6,65-74,67.1c-16.3,0.8-30.4-3.6-39.7-12.4
		c-7.3-6.9-11.1-16.1-11.1-26.6c0-23.4,20-38.2,54.9-40.4L512.9,223.4z"/>
	<path class="st0" d="M1083.1,53.3c-67.8,0-118.9,37.5-122.6,93.2l-0.4,6.5h60.8l1-4.8c5.6-26.2,27-40.6,60.1-40.6
		c36,0,56.6,18.1,56.6,49.7v18.2l-76.2,4.3c-68.6,4-110.1,37.6-110.1,89.8c0,55,41.3,92,102,92c36.2,0,62.6-9.9,84.1-31.9v27h61.7
		v-204C1200,92.3,1153.4,53.3,1083.1,53.3z M1138.6,223.4v18.3c-4,39.9-31.6,65-74,67.1c-16.3,0.8-30.4-3.6-39.7-12.4
		c-7.3-6.9-11.1-16.1-11.1-26.6c0-23.4,20-38.2,54.9-40.4L1138.6,223.4z"/>
</g>
</svg>
